<svg id="Layer_1" data-name="Layer 1" xmlns="http://www.w3.org/2000/svg" viewBox="0 0 154.38 195.33"><defs><style>.cls-1{stroke:#231f20;stroke-miterlimit:10}.cls-2{fill:#63d1bb}</style></defs><title>icon_htmlacademy</title><path class="cls-1" d="M640.8 303l-.81-.08-76.69 8v140.57l76.7 45.63 76.69-45.63V310.92zm65.86 142.82L640 485.45l-66.66-39.66v-57.62l66.37 39.51.11 7.16-45.53-27.1-.07 7 45.71 27.47.11 7.35-45.7-27.19-.07 7L640 456.75l46.15-27.62v-7h-.06v-22.65l20.57-12.28zm-.05-66.06l-18.24 10.74-8.42 5-40.15-23.96-.07 7 34.32 20.41-.3.18-.74.44-4.88 2.87-28.33-16.9-.07 7 22.36 13.3-5.28 3.53-.13.08-16.89-10-.07 7 11.08 6.53-11.29 6.78-66-39.26 66.14-39.75zm.05-7l-67-39.51-66.28 39.46V320l66.62-7 66.66 7z" transform="translate(-562.81 -302.38)"/><path class="cls-2" d="M640.8 303l-.81-.08-76.69 8v140.57l76.7 45.63 76.69-45.63V310.92zm65.86 142.82L640 485.45l-66.66-39.66v-57.62l66.37 39.51.11 7.16-45.53-27.1-.07 7 45.71 27.47.11 7.35-45.7-27.19-.07 7L640 456.75l46.15-27.62v-7h-.06v-22.65l20.57-12.28zm-.05-66.06l-18.24 10.74-8.42 5-40.15-23.96-.07 7 34.32 20.41-.3.18-.74.44-4.88 2.87-28.33-16.9-.07 7 22.36 13.3-5.28 3.53-.13.08-16.89-10-.07 7 11.08 6.53-11.29 6.78-66-39.26 66.14-39.75zm.05-7l-67-39.51-66.28 39.46V320l66.62-7 66.66 7z" transform="translate(-562.81 -302.38)"/></svg>